<?xml version="1.0" encoding="utf-8"?>
<!-- Generator: Adobe Illustrator 23.0.0, SVG Export Plug-In . SVG Version: 6.00 Build 0)  -->
<svg version="1.1" id="Layer_1" xmlns="http://www.w3.org/2000/svg" xmlns:xlink="http://www.w3.org/1999/xlink" x="0px" y="0px"
	 viewBox="0 0 36.54 36.54" style="enable-background:new 0 0 36.54 36.54;" xml:space="preserve">
<style type="text/css">
	.st0{fill:#8E99A8;}
</style>
<path id="Facebook_1_" class="st0" d="M77.45,24.54c0,1.12-0.91,2.03-2.03,2.03h-9.35V12.35h4.77l0.71-5.54h-5.49V3.27
	c0-1.6,0.45-2.7,2.75-2.7l2.93,0v-4.96C71.24-4.45,69.5-4.6,67.48-4.6c-4.23,0-7.13,2.58-7.13,7.32v4.09h-4.78v5.54h4.78v14.22
	H42.77c-1.12,0-2.03-0.91-2.03-2.03V-8.12c0-1.12,0.91-2.03,2.03-2.03h32.66c1.12,0,2.03,0.91,2.03,2.03V24.54z"/>
</svg>
